{
  "accessors": [
    {
      "bufferView": 2,
      "componentType": 5126,
      "count": 4938,
      "max": [
        1.0043073892593384,
        1.0,
        0.013500000350177288
      ],
      "min": [
        -1.0000115633010864,
        -1.01161789894104,
        -0.014463510364294052
      ],
      "type": "VEC3"
    },
    {
      "bufferView": 2,
      "byteOffset": 59256,
      "componentType": 5126,
      "count": 4938,
      "max": [
        0.7076336741447449,
        0.7095579504966736,
        0.7091213464736938
      ],
      "min": [
        -0.7084660530090332,
        -0.7094442248344421,
        -0.7095572352409363
      ],
      "type": "VEC3"
    },
    {
      "bufferView": 1,
      "componentType": 5126,
      "count": 4938,
      "max": [
        1.0,
        1.0
      ],
      "min": [
        0.0,
        0.0
      ],
      "type": "VEC2"
    },
    {
      "bufferView": 0,
      "componentType": 5125,
      "count": 7416,
      "type": "SCALAR"
    }
  ],
  "asset": {
    "extras": {
      "author": "hinatabile (https://sketchfab.com/hinatabile)",
      "license": "SKETCHFAB Standard (https://sketchfab.com/licenses)",
      "source": "https://sketchfab.com/3d-models/gold-fence-1854317898de46b1ab1a97b0a887f352",
      "title": "GOLD FENCE"
    },
    "generator": "Sketchfab-15.76.0",
    "version": "2.0"
  },
  "bufferViews": [
    {
      "buffer": 0,
      "byteLength": 29664,
      "name": "floatBufferViews",
      "target": 34963
    },
    {
      "buffer": 0,
      "byteLength": 39504,
      "byteOffset": 29664,
      "byteStride": 8,
      "name": "floatBufferViews",
      "target": 34962
    },
    {
      "buffer": 0,
      "byteLength": 118512,
      "byteOffset": 69168,
      "byteStride": 12,
      "name": "floatBufferViews",
      "target": 34962
    }
  ],
  "buffers": [
    {
      "byteLength": 187680,
      "uri": "scene.bin"
    }
  ],
  "materials": [
    {
      "doubleSided": true,
      "name": "Material.005",
      "pbrMetallicRoughness": {
        "baseColorFactor": [
          0.8,
          0.524343,
          0.0,
          1.0
        ],
        "metallicFactor": 0.0,
        "roughnessFactor": 0.8781141452127318
      }
    }
  ],
  "meshes": [
    {
      "name": "Plane.016_Material.005_0",
      "primitives": [
        {
          "attributes": {
            "NORMAL": 1,
            "POSITION": 0,
            "TEXCOORD_0": 2
          },
          "indices": 3,
          "material": 0,
          "mode": 4
        }
      ]
    }
  ],
  "nodes": [
    {
      "children": [
        1
      ],
      "matrix": [
        1.0,
        0.0,
        0.0,
        0.0,
        0.0,
        2.220446049250313e-16,
        -1.0,
        0.0,
        0.0,
        1.0,
        2.220446049250313e-16,
        0.0,
        0.0,
        0.0,
        0.0,
        1.0
      ],
      "name": "Sketchfab_model"
    },
    {
      "children": [
        2
      ],
      "matrix": [
        0.009999999776482582,
        0.0,
        0.0,
        0.0,
        0.0,
        0.0,
        0.009999999776482582,
        0.0,
        0.0,
        -0.009999999776482582,
        0.0,
        0.0,
        0.0,
        0.0,
        0.0,
        1.0
      ],
      "name": "FENCE 1.fbx"
    },
    {
      "children": [
        3
      ],
      "name": "RootNode"
    },
    {
      "children": [
        4
      ],
      "matrix": [
        70.19202423095703,
        0.0,
        0.0,
        0.0,
        0.0,
        75.72575378417962,
        3.310077826966192e-06,
        0.0,
        0.0,
        -2.564987612919706e-06,
        58.68007659912104,
        0.0,
        296.01416015625,
        180.33721923828125,
        -1324.6483154296875,
        1.0
      ],
      "name": "Plane.016"
    },
    {
      "mesh": 0,
      "name": "Plane.016_Material.005_0"
    }
  ],
  "scene": 0,
  "scenes": [
    {
      "name": "Sketchfab_Scene",
      "nodes": [
        0
      ]
    }
  ]
}
